<svg width="19" height="26" viewBox="0 0 19 26" fill="none" xmlns="http://www.w3.org/2000/svg">
<path d="M17.317 8.427C17.4626 9.1981 17.3489 9.99571 16.9936 10.6954C16.6383 11.3951 16.0615 11.9576 15.353 12.295C16.381 12.4902 17.3089 13.0376 17.977 13.843C18.6002 14.7852 18.8412 15.9294 18.651 17.043C18.5973 17.691 18.4326 18.3249 18.164 18.917C17.9344 19.422 17.6055 19.8757 17.197 20.251C16.7668 20.6254 16.2748 20.9221 15.743 21.128C15.1559 21.3649 14.545 21.5383 13.921 21.645C13.1989 21.7641 12.4702 21.8393 11.739 21.87V25.693H9.42998V21.936C8.62998 21.936 8.02032 21.931 7.60098 21.921V25.699H5.29198V21.876C5.11198 21.876 4.84198 21.8733 4.48198 21.868C4.12198 21.8627 3.84698 21.86 3.65698 21.86H0.656982L1.12198 19.116H2.78598C2.89389 19.1256 3.00261 19.1131 3.10556 19.0794C3.20851 19.0457 3.30354 18.9914 3.38489 18.9199C3.46624 18.8484 3.53221 18.7611 3.57881 18.6633C3.62541 18.5655 3.65167 18.4592 3.65598 18.351V12.325H3.89598C3.8165 12.3137 3.73625 12.3087 3.65598 12.31V8.01C3.61345 7.69825 3.44928 7.416 3.19934 7.22489C2.94939 7.03378 2.63398 6.94933 2.32198 6.99H0.658982V4.528L3.83798 4.543C4.47798 4.543 4.96265 4.538 5.29198 4.528V0.75H7.60098V4.45C8.42032 4.43 9.02998 4.42 9.42998 4.42V0.75H11.739V4.528C12.4468 4.58442 13.149 4.69711 13.839 4.865C14.4313 5.01313 15.0011 5.24016 15.533 5.54C16.0369 5.81973 16.4622 6.22173 16.77 6.709C17.0864 7.22962 17.274 7.81828 17.317 8.426V8.427ZM14.093 16.598C14.0993 16.2642 14.0219 15.9342 13.868 15.638C13.7306 15.3735 13.5419 15.1389 13.313 14.948C13.0541 14.7472 12.7625 14.5926 12.451 14.491C12.1305 14.3758 11.8024 14.2833 11.469 14.214C11.1022 14.1457 10.7315 14.1006 10.359 14.079C9.91898 14.049 9.57398 14.034 9.32398 14.034C9.07398 14.034 8.75165 14.039 8.35698 14.049C7.96232 14.059 7.72498 14.064 7.64498 14.064V19.132C7.72498 19.132 7.90998 19.1347 8.19998 19.14C8.48998 19.1453 8.72998 19.148 8.91998 19.148C9.10998 19.148 9.37498 19.1407 9.71498 19.126C10.055 19.1113 10.3473 19.0913 10.592 19.066C10.8366 19.0413 11.1216 18.999 11.447 18.939C11.7292 18.8899 12.0073 18.8197 12.279 18.729C12.524 18.6423 12.762 18.537 12.991 18.414C13.2138 18.3008 13.4143 18.1484 13.583 17.964C13.7379 17.7858 13.8619 17.583 13.95 17.364C14.0472 17.1208 14.0955 16.8609 14.092 16.599L14.093 16.598ZM13.028 9.461C13.034 9.15817 12.97 8.85805 12.841 8.584C12.7294 8.34724 12.5744 8.13353 12.384 7.954C12.1723 7.77022 11.9281 7.62776 11.664 7.534C11.3964 7.42879 11.1204 7.34617 10.839 7.287C10.5341 7.22971 10.2263 7.18965 9.91698 7.167C9.55231 7.137 9.26232 7.12467 9.04698 7.13C8.83165 7.13533 8.56165 7.14033 8.23698 7.145L7.64498 7.153V11.753L8.16198 11.761C8.45665 11.7663 8.68998 11.7663 8.86198 11.761C9.03398 11.7557 9.28398 11.7457 9.61198 11.731C9.88848 11.7217 10.1641 11.6943 10.437 11.649C10.657 11.609 10.9143 11.554 11.209 11.484C11.4641 11.4295 11.7093 11.3361 11.936 11.207C12.1318 11.0893 12.3174 10.9555 12.491 10.807C12.6698 10.6505 12.8072 10.4523 12.891 10.23C12.9836 9.98575 13.0294 9.72622 13.026 9.465L13.028 9.461Z" fill="#FF2646"/>
</svg>
