<svg width="45" height="44" viewBox="0 0 45 44" fill="none" xmlns="http://www.w3.org/2000/svg">
<path d="M9.22876 21.156C9.22876 21.156 13.3228 17.3021 15.7288 20.9131L18.8589 27.4131C18.8589 27.4131 27.5289 10.7939 43.6689 0.919922L44.3909 2.11987C44.3909 2.11987 26.3278 16.572 21.0278 32.469L17.1738 35.1179C17.1738 35.1179 14.2878 22.36 9.22876 21.156Z" fill="white"/>
<path d="M27.6809 43.2319H6.40991C4.83601 43.2317 3.32672 42.6064 2.21362 41.4937C1.10052 40.3809 0.474672 38.8717 0.473877 37.2979V16.0249C0.474672 14.451 1.10052 12.9418 2.21362 11.8291C3.32672 10.7164 4.83601 10.0911 6.40991 10.0908H17.0439C17.8115 10.0908 18.5476 10.3957 19.0903 10.9385C19.6331 11.4812 19.938 12.2173 19.938 12.9849C19.938 13.7524 19.6331 14.4885 19.0903 15.0312C18.5476 15.574 17.8115 15.8789 17.0439 15.8789H6.40991C6.39066 15.8786 6.37159 15.8822 6.35376 15.8894C6.33592 15.8966 6.31976 15.9075 6.30615 15.9211C6.29254 15.9348 6.28166 15.9509 6.27441 15.9688C6.26717 15.9866 6.26365 16.0057 6.26392 16.0249V37.2998C6.26392 37.3189 6.2678 37.3381 6.27515 37.3557C6.2825 37.3734 6.29331 37.3894 6.30688 37.4028C6.32046 37.4163 6.33654 37.4269 6.35425 37.4341C6.37196 37.4413 6.39079 37.445 6.40991 37.4448H27.6809C27.7194 37.4448 27.7563 37.4295 27.7834 37.4023C27.8106 37.3752 27.8259 37.3383 27.8259 37.2998V26.6648C27.8259 25.8971 28.131 25.161 28.6738 24.6182C29.2167 24.0753 29.9528 23.7705 30.7205 23.7705C31.4881 23.7705 32.2243 24.0753 32.7671 24.6182C33.3099 25.161 33.615 25.8971 33.615 26.6648V37.2998C33.6142 38.8734 32.9886 40.3824 31.876 41.4951C30.7633 42.6078 29.2545 43.2331 27.6809 43.2339V43.2319Z" fill="white"/>
</svg>
