<svg width="1169" height="680.635" xmlns="http://www.w3.org/2000/svg"><g transform="translate(586 341.82)"><filter id="a" y="-21%" height="142%" x="-20%" width="140%"><feGaussianBlur in="SourceAlpha" stdDeviation="1.5"/><feOffset dy="4" result="oBlur"/><feFlood flood-color="#000" flood-opacity=".161"/><feComposite in2="oBlur" operator="in"/><feMerge><feMergeNode/><feMergeNode in="SourceGraphic"/></feMerge></filter><path transform="translate(-1027.77 -810.51)" d="M877.56 472.216c-89.145 13.521-159.11 83.495-172.619 172.642-133.319-25.551-254.24 65.666-261.341 173.277-4.179 63.324 31.46 126.17 90.038 164.765a234.056 234.056 0 0 0 123.538 38.088 314.69 314.69 0 0 0 15.313 25.867c121.905 184.457 323.819 21.022 323.819 21.022a206.328 206.328 0 0 0 167.098 82.939c9.8 0 19.668-.673 29.533-2.047 75.258-10.482 137.998-60.097 161.608-127.78a221.233 221.233 0 0 0 97.627.497c78.382-15.162 140.225-75.512 157.298-153.5 19.676-107.814-66.74-213.427-188.052-223.128-.11-.69-.227-1.38-.353-2.067-2.655-14.572-18.75-86.613-84.289-132.574a197.659 197.659 0 0 0-33.465-18.869c-79.438-35.219-177.806-18.723-244.908 42.189-6.727-6.622-79.55-75.976-180.844-61.321z" stroke="#5a5b5e" stroke-width="3" fill="#fff" fill-rule="evenodd" filter="url(#a)"/></g></svg>