<svg width="956" height="860" viewBox="0 0 956 860" fill="none" xmlns="http://www.w3.org/2000/svg">
<path d="M836.022 808.746C834.112 810.257 832.563 812.177 831.491 814.363C830.418 816.55 829.848 818.949 829.823 821.385C826.52 820.653 823.072 820.962 819.952 822.27C816.832 823.577 814.194 825.819 812.399 828.686C810.605 831.554 809.743 834.906 809.931 838.284C810.119 841.661 811.349 844.897 813.451 847.548C819.254 854.865 828.524 855.959 835.956 856.097C839.213 856.146 842.471 856.024 845.715 855.732L856.252 854.713L859.646 844.684C860.671 841.592 861.532 838.448 862.225 835.265C863.786 828.001 864.833 818.723 859.029 811.398C857.693 809.713 856.038 808.308 854.158 807.263C852.278 806.218 850.211 805.553 848.075 805.307C845.938 805.061 843.774 805.238 841.706 805.828C839.638 806.418 837.707 807.41 836.022 808.746V808.746Z" fill="url(#paint0_radial_2_530)"/>
<path style="mix-blend-mode:overlay" opacity="0.5" d="M831.332 837.099C831.572 844.167 827.361 850.046 821.92 850.235C816.478 850.424 811.864 844.847 811.625 837.78C811.385 830.713 815.593 824.831 821.037 824.645C826.48 824.459 831.091 830.031 831.332 837.099Z" fill="url(#paint1_radial_2_530)"/>
<path style="mix-blend-mode:overlay" opacity="0.5" d="M854.052 836.837C855.366 830.94 857.834 826.472 859.572 826.858C861.31 827.245 861.653 832.339 860.339 838.236C859.026 844.134 856.559 848.603 854.822 848.217C853.085 847.832 852.745 842.734 854.052 836.837Z" fill="url(#paint2_radial_2_530)"/>
<path style="mix-blend-mode:overlay" opacity="0.5" d="M844.214 807.277C848.053 806.949 851.285 808.119 851.438 809.889C851.59 811.66 848.602 813.37 844.767 813.694C840.932 814.018 837.697 812.854 837.548 811.084C837.398 809.313 840.381 807.608 844.214 807.277Z" fill="url(#paint3_radial_2_530)"/>
<path d="M278.517 731.089C275.91 732.595 273.672 734.664 271.967 737.145C270.263 739.627 269.134 742.458 268.664 745.432C264.754 743.944 260.48 743.703 256.428 744.742C252.376 745.782 248.745 748.051 246.034 751.237C243.324 754.423 241.667 758.371 241.291 762.537C240.914 766.704 241.838 770.884 243.934 774.505C249.72 784.499 260.867 787.504 269.936 789.006C273.912 789.65 277.919 790.086 281.941 790.312L295.016 790.957L300.97 779.295C302.78 775.697 304.398 772.005 305.818 768.236C309.033 759.624 311.979 748.464 306.191 738.465C304.859 736.164 303.086 734.147 300.974 732.531C298.862 730.915 296.452 729.73 293.882 729.046C291.312 728.361 288.633 728.189 285.996 728.539C283.36 728.89 280.819 729.757 278.517 731.089V731.089Z" fill="url(#paint4_radial_2_530)"/>
<path style="mix-blend-mode:overlay" opacity="0.5" d="M267.694 764.941C266.724 773.633 260.511 780.069 253.82 779.326C247.13 778.583 242.484 770.93 243.46 762.238C244.436 753.547 250.642 747.107 257.333 747.854C264.025 748.601 268.664 756.251 267.694 764.941Z" fill="url(#paint5_radial_2_530)"/>
<path style="mix-blend-mode:overlay" opacity="0.5" d="M295.538 768.702C298.203 761.722 302.027 756.698 304.084 757.484C306.141 758.269 305.645 764.562 302.981 771.543C300.316 778.523 296.494 783.546 294.437 782.762C292.381 781.977 292.879 775.683 295.538 768.702Z" fill="url(#paint6_radial_2_530)"/>
<path style="mix-blend-mode:overlay" opacity="0.5" d="M288.81 730.766C293.564 731.054 297.31 733.068 297.178 735.261C297.047 737.454 293.086 739.005 288.335 738.718C283.584 738.432 279.835 736.42 279.971 734.231C280.106 732.042 284.059 730.484 288.81 730.766Z" fill="url(#paint7_radial_2_530)"/>
<path d="M241.273 182.908C238.451 183.891 235.885 185.493 233.761 187.596C231.638 189.698 230.011 192.249 229 195.062C225.465 192.883 221.342 191.853 217.197 192.113C213.053 192.373 209.09 193.91 205.854 196.513C202.618 199.115 200.268 202.656 199.126 206.649C197.983 210.641 198.105 214.889 199.475 218.81C203.253 229.637 213.566 234.637 222.131 237.794C225.887 239.164 229.713 240.335 233.593 241.3L246.228 244.362L254.204 234.098C256.637 230.924 258.902 227.625 260.991 224.215C265.729 216.414 270.68 206.076 266.895 195.249C266.024 192.756 264.67 190.459 262.91 188.489C261.151 186.52 259.02 184.916 256.641 183.77C254.262 182.624 251.68 181.958 249.043 181.81C246.406 181.662 243.766 182.035 241.273 182.908V182.908Z" fill="url(#paint8_radial_2_530)"/>
<path style="mix-blend-mode:overlay" opacity="0.5" d="M224.424 213.898C221.858 222.197 214.601 227.313 208.214 225.342C201.827 223.371 198.722 215.045 201.291 206.751C203.86 198.457 211.113 193.332 217.5 195.308C223.888 197.284 226.987 205.605 224.424 213.898Z" fill="url(#paint9_radial_2_530)"/>
<path style="mix-blend-mode:overlay" opacity="0.5" d="M250.875 222.751C254.776 216.439 259.439 212.255 261.3 213.406C263.161 214.557 261.504 220.598 257.605 226.909C253.705 233.22 249.042 237.41 247.186 236.261C245.331 235.112 246.982 229.065 250.875 222.751Z" fill="url(#paint10_radial_2_530)"/>
<path style="mix-blend-mode:overlay" opacity="0.5" d="M251.376 184.501C255.959 185.67 259.237 188.332 258.696 190.446C258.155 192.561 254.006 193.334 249.428 192.172C244.85 191.01 241.568 188.347 242.108 186.231C242.649 184.116 246.796 183.345 251.376 184.501Z" fill="url(#paint11_radial_2_530)"/>
<path d="M924.796 516.031C922.885 517.542 921.336 519.461 920.262 521.647C919.188 523.834 918.617 526.233 918.59 528.669C915.287 527.936 911.839 528.243 908.718 529.55C905.597 530.856 902.957 533.096 901.161 535.963C899.365 538.831 898.501 542.183 898.688 545.561C898.875 548.939 900.103 552.177 902.204 554.828C908.004 562.15 917.276 563.248 924.709 563.389C927.966 563.439 931.224 563.319 934.469 563.028L945.008 562.014L948.408 551.985C949.434 548.893 950.297 545.749 950.991 542.566C952.556 535.302 953.607 526.023 947.806 518.694C946.47 517.008 944.815 515.602 942.935 514.556C941.056 513.51 938.989 512.844 936.852 512.597C934.716 512.35 932.551 512.526 930.483 513.115C928.414 513.704 926.482 514.695 924.796 516.031V516.031Z" fill="url(#paint12_radial_2_530)"/>
<path style="mix-blend-mode:overlay" opacity="0.5" d="M920.092 544.386C920.33 551.455 916.116 557.333 910.673 557.52C905.231 557.706 900.619 552.127 900.382 545.059C900.146 537.991 904.357 532.11 909.802 531.926C915.246 531.743 919.855 537.317 920.092 544.386Z" fill="url(#paint13_radial_2_530)"/>
<path style="mix-blend-mode:overlay" opacity="0.5" d="M942.816 544.134C944.133 538.237 946.604 533.769 948.342 534.157C950.08 534.544 950.42 539.639 949.104 545.537C947.787 551.435 945.318 555.904 943.581 555.517C941.844 555.131 941.506 550.032 942.816 544.134Z" fill="url(#paint14_radial_2_530)"/>
<path style="mix-blend-mode:overlay" opacity="0.5" d="M932.99 514.565C936.83 514.239 940.062 515.411 940.214 517.182C940.365 518.953 937.376 520.661 933.541 520.984C929.705 521.306 926.47 520.14 926.321 518.37C926.172 516.599 929.157 514.895 932.99 514.565Z" fill="url(#paint15_radial_2_530)"/>
<path d="M63.0028 17.5603C59.0664 18.6156 55.4157 20.5376 52.3177 23.1855C49.2197 25.8335 46.7529 29.1406 45.0977 32.8647C40.5076 29.5482 35.0031 27.7345 29.3406 27.6729C23.6781 27.6114 18.1355 29.305 13.4745 32.521C8.81345 35.7371 5.26279 40.3177 3.31046 45.6333C1.35813 50.949 1.09995 56.7388 2.57138 62.2072C6.63255 77.3036 20.1545 85.1398 31.4797 90.2823C36.4528 92.5184 41.5392 94.4933 46.7181 96.199L63.588 101.627L75.4604 88.4658C79.0878 84.3945 82.4979 80.1347 85.6764 75.7041C92.8975 65.5722 100.662 52.0112 96.6005 36.9099C95.6652 33.4332 94.0541 30.1748 91.8594 27.3208C89.6647 24.4668 86.9293 22.073 83.8094 20.2762C80.6896 18.4794 77.2463 17.3148 73.6763 16.8488C70.1063 16.3828 66.4794 16.6245 63.0028 17.5603V17.5603Z" fill="url(#paint16_radial_2_530)"/>
<path style="mix-blend-mode:overlay" opacity="0.5" d="M36.9873 58.0209C32.6711 69.0461 22.2921 75.2819 13.8046 71.9609C5.31718 68.64 1.9262 57.0086 6.24845 45.9884C10.5707 34.9682 20.9427 28.7214 29.4301 32.0484C37.9176 35.3754 41.3026 46.9997 36.9873 58.0209Z" fill="url(#paint17_radial_2_530)"/>
<path style="mix-blend-mode:overlay" opacity="0.5" d="M72.0745 72.7012C78.0062 64.5089 84.7671 59.2813 87.1788 61.0288C89.5905 62.7763 86.7387 70.8317 80.808 79.0241C74.8773 87.2164 68.1183 92.4439 65.7036 90.6984C63.2889 88.9529 66.1497 80.8956 72.0745 72.7012Z" fill="url(#paint18_radial_2_530)"/>
<path style="mix-blend-mode:overlay" opacity="0.5" d="M76.5748 20.7401C82.6906 22.7837 86.8778 26.7288 85.9405 29.5507C85.0032 32.3725 79.2776 33.0117 73.1658 30.9711C67.0541 28.9305 62.8629 24.9863 63.8021 22.1685C64.7414 19.3507 70.464 18.7095 76.5748 20.7401Z" fill="url(#paint19_radial_2_530)"/>
<path d="M792.799 71.1786C789.867 71.7583 787.101 72.986 784.705 74.772C782.308 76.5579 780.341 78.857 778.947 81.501C775.75 78.8502 771.81 77.2544 767.669 76.933C763.529 76.6116 759.39 77.5803 755.822 79.706C752.254 81.8317 749.431 85.0101 747.743 88.8045C746.054 92.5989 745.582 96.8232 746.39 100.897C748.62 112.147 758.136 118.539 766.176 122.862C769.705 124.743 773.331 126.437 777.039 127.935L789.124 132.731L798.457 123.681C801.309 120.877 804.013 117.926 806.558 114.84C812.339 107.776 818.686 98.2295 816.45 86.9782C815.935 84.3876 814.915 81.9238 813.447 79.7275C811.98 77.5313 810.094 75.6458 807.898 74.1785C805.701 72.7113 803.237 71.6912 800.647 71.1765C798.056 70.6617 795.389 70.6625 792.799 71.1786V71.1786Z" fill="url(#paint20_radial_2_530)"/>
<path style="mix-blend-mode:overlay" opacity="0.5" d="M771.784 99.517C768.085 107.377 760.183 111.431 754.133 108.587C748.083 105.743 746.17 97.0636 749.873 89.2085C753.575 81.3533 761.474 77.2899 767.524 80.1389C773.574 82.9879 775.481 91.662 771.784 99.517Z" fill="url(#paint21_radial_2_530)"/>
<path style="mix-blend-mode:overlay" opacity="0.5" d="M796.744 111.978C801.489 106.271 806.691 102.779 808.373 104.178C810.055 105.578 807.571 111.33 802.828 117.035C798.085 122.741 792.882 126.239 791.204 124.842C789.527 123.445 792.007 117.688 796.744 111.978Z" fill="url(#paint22_radial_2_530)"/>
<path style="mix-blend-mode:overlay" opacity="0.5" d="M802.581 74.1672C806.957 75.9643 809.832 79.0584 809.001 81.0771C808.17 83.0958 803.953 83.2825 799.581 81.4923C795.209 79.7021 792.331 76.6061 793.162 74.5864C793.993 72.5667 798.207 72.383 802.581 74.1672Z" fill="url(#paint23_radial_2_530)"/>
<path d="M403.57 58.3286C401.287 59.1754 399.221 60.5222 397.525 62.2706C395.829 64.0189 394.546 66.1244 393.769 68.4329C390.854 66.7165 387.479 65.945 384.108 66.2242C380.737 66.5035 377.535 67.82 374.942 69.9927C372.35 72.1654 370.493 75.0876 369.629 78.3579C368.764 81.6282 368.934 85.0861 370.114 88.2562C373.371 97.0088 381.85 100.914 388.875 103.341C391.958 104.394 395.094 105.285 398.27 106.01L408.605 108.297L414.933 99.8079C416.863 97.1839 418.654 94.4598 420.296 91.647C424.026 85.2209 427.888 76.7199 424.632 67.9601C423.882 65.9447 422.742 64.0969 421.277 62.5221C419.812 60.9474 418.052 59.6765 416.096 58.7821C414.14 57.8877 412.027 57.3874 409.878 57.3095C407.729 57.2317 405.586 57.578 403.57 58.3286V58.3286Z" fill="url(#paint24_radial_2_530)"/>
<path style="mix-blend-mode:overlay" opacity="0.5" d="M390.348 83.8442C388.393 90.6406 382.571 94.9303 377.338 93.4287C372.104 91.9271 369.439 85.1975 371.395 78.4025C373.351 71.6075 379.171 67.3138 384.405 68.819C389.64 70.3241 392.304 77.0479 390.348 83.8442Z" fill="url(#paint25_radial_2_530)"/>
<path style="mix-blend-mode:overlay" opacity="0.5" d="M412.037 90.6159C415.109 85.4135 418.838 81.9268 420.371 82.8315C421.904 83.7363 420.656 88.6866 417.584 93.8899C414.513 99.0932 410.785 102.581 409.253 101.677C407.72 100.774 408.971 95.8208 412.037 90.6159Z" fill="url(#paint26_radial_2_530)"/>
<path style="mix-blend-mode:overlay" opacity="0.5" d="M411.816 59.4623C415.568 60.3369 418.28 62.4482 417.878 64.1794C417.476 65.9106 414.106 66.6133 410.359 65.7364C406.611 64.8594 403.894 62.7527 404.299 61.0228C404.704 59.2929 408.068 58.593 411.816 59.4623Z" fill="url(#paint27_radial_2_530)"/>
<path d="M144.099 462.896C141.816 463.743 139.75 465.089 138.054 466.838C136.358 468.586 135.075 470.692 134.298 473C131.383 471.284 128.008 470.512 124.637 470.791C121.266 471.071 118.064 472.387 115.471 474.56C112.879 476.733 111.022 479.655 110.158 482.925C109.293 486.195 109.463 489.653 110.643 492.823C113.9 501.576 122.379 505.481 129.404 507.909C132.487 508.962 135.623 509.852 138.799 510.577L149.135 512.864L155.462 504.375C157.392 501.751 159.183 499.027 160.826 496.214C164.555 489.788 168.417 481.287 165.161 472.527C164.411 470.512 163.271 468.664 161.806 467.089C160.341 465.515 158.581 464.244 156.625 463.349C154.669 462.455 152.557 461.955 150.407 461.877C148.258 461.799 146.115 462.145 144.099 462.896V462.896Z" fill="url(#paint28_radial_2_530)"/>
<path style="mix-blend-mode:overlay" opacity="0.5" d="M130.877 488.411C128.922 495.208 123.1 499.497 117.867 497.996C112.633 496.494 109.968 489.765 111.924 482.97C113.88 476.175 119.7 471.881 124.934 473.386C130.169 474.891 132.833 481.615 130.877 488.411Z" fill="url(#paint29_radial_2_530)"/>
<path style="mix-blend-mode:overlay" opacity="0.5" d="M152.566 495.183C155.638 489.981 159.367 486.494 160.9 487.399C162.433 488.303 161.185 493.254 158.114 498.457C155.042 503.66 151.315 507.148 149.782 506.245C148.249 505.341 149.5 500.388 152.566 495.183Z" fill="url(#paint30_radial_2_530)"/>
<path style="mix-blend-mode:overlay" opacity="0.5" d="M152.345 464.029C156.097 464.904 158.81 467.015 158.407 468.747C158.005 470.478 154.635 471.18 150.888 470.303C147.14 469.427 144.423 467.32 144.828 465.59C145.233 463.86 148.597 463.16 152.345 464.029Z" fill="url(#paint31_radial_2_530)"/>
<defs>
<radialGradient id="paint0_radial_2_530" cx="0" cy="0" r="1" gradientUnits="userSpaceOnUse" gradientTransform="translate(1044.85 1829.58) rotate(2.64084) scale(46.5395 41.6403)">
<stop stop-color="white"/>
<stop offset="0.048" stop-color="#FCEFF1"/>
<stop offset="0.108" stop-color="#FAE3E6"/>
<stop offset="0.167" stop-color="#FADFE3"/>
<stop offset="0.583" stop-color="#FAB1BD"/>
<stop offset="0.806" stop-color="#FA9EAD"/>
<stop offset="0.845" stop-color="#FAA3B1"/>
<stop offset="1" stop-color="#FAB7C0"/>
</radialGradient>
<radialGradient id="paint1_radial_2_530" cx="0" cy="0" r="1" gradientUnits="userSpaceOnUse" gradientTransform="translate(1108.76 1759.53) rotate(-0.0393416) scale(11.795 9.41572)">
<stop stop-color="white"/>
<stop offset="0.425" stop-color="white" stop-opacity="0.553"/>
<stop offset="0.823" stop-color="white" stop-opacity="0.157"/>
<stop offset="1" stop-color="white" stop-opacity="0"/>
</radialGradient>
<radialGradient id="paint2_radial_2_530" cx="0" cy="0" r="1" gradientUnits="userSpaceOnUse" gradientTransform="translate(-303.448 1101.28) rotate(-171.273) scale(9.71666 3.1981)">
<stop stop-color="white"/>
<stop offset="0.425" stop-color="white" stop-opacity="0.553"/>
<stop offset="0.823" stop-color="white" stop-opacity="0.157"/>
<stop offset="1" stop-color="white" stop-opacity="0"/>
</radialGradient>
<radialGradient id="paint3_radial_2_530" cx="0" cy="0" r="1" gradientUnits="userSpaceOnUse" gradientTransform="translate(988.886 -692.19) rotate(-89.0737) scale(2.96663 6.63567)">
<stop stop-color="white"/>
<stop offset="0.425" stop-color="white" stop-opacity="0.553"/>
<stop offset="0.823" stop-color="white" stop-opacity="0.157"/>
<stop offset="1" stop-color="white" stop-opacity="0"/>
</radialGradient>
<radialGradient id="paint4_radial_2_530" cx="0" cy="0" r="1" gradientUnits="userSpaceOnUse" gradientTransform="translate(101.03 770.422) rotate(13.8434) scale(58.8936 50.3341)">
<stop stop-color="white"/>
<stop offset="0.048" stop-color="#FCEFF1"/>
<stop offset="0.108" stop-color="#FAE3E6"/>
<stop offset="0.167" stop-color="#FADFE3"/>
<stop offset="0.583" stop-color="#FAB1BD"/>
<stop offset="0.806" stop-color="#FA9EAD"/>
<stop offset="0.845" stop-color="#FAA3B1"/>
<stop offset="1" stop-color="#FAB7C0"/>
</radialGradient>
<radialGradient id="paint5_radial_2_530" cx="0" cy="0" r="1" gradientUnits="userSpaceOnUse" gradientTransform="translate(89.3141 929.427) rotate(2.95152) scale(11.1898 15.1599)">
<stop stop-color="white"/>
<stop offset="0.425" stop-color="white" stop-opacity="0.553"/>
<stop offset="0.823" stop-color="white" stop-opacity="0.157"/>
<stop offset="1" stop-color="white" stop-opacity="0"/>
</radialGradient>
<radialGradient id="paint6_radial_2_530" cx="0" cy="0" r="1" gradientUnits="userSpaceOnUse" gradientTransform="translate(685.095 -785.652) rotate(-166.074) scale(3.46513 13.7352)">
<stop stop-color="white"/>
<stop offset="0.425" stop-color="white" stop-opacity="0.553"/>
<stop offset="0.823" stop-color="white" stop-opacity="0.157"/>
<stop offset="1" stop-color="white" stop-opacity="0"/>
</radialGradient>
<radialGradient id="paint7_radial_2_530" cx="0" cy="0" r="1" gradientUnits="userSpaceOnUse" gradientTransform="translate(475.17 511.937) rotate(-94.3856) scale(6.40775 4.72009)">
<stop stop-color="white"/>
<stop offset="0.425" stop-color="white" stop-opacity="0.553"/>
<stop offset="0.823" stop-color="white" stop-opacity="0.157"/>
<stop offset="1" stop-color="white" stop-opacity="0"/>
</radialGradient>
<radialGradient id="paint8_radial_2_530" cx="0" cy="0" r="1" gradientUnits="userSpaceOnUse" gradientTransform="translate(175.503 224.488) rotate(25.3913) scale(59.3221 49.2956)">
<stop stop-color="white"/>
<stop offset="0.133" stop-color="#FDF9FA"/>
<stop offset="0.575" stop-color="#FAEDEE"/>
<stop offset="1" stop-color="#FAE9EB"/>
</radialGradient>
<radialGradient id="paint9_radial_2_530" cx="0" cy="0" r="1" gradientUnits="userSpaceOnUse" gradientTransform="translate(167.285 268.612) rotate(13.7824) scale(11.0409 15.1296)">
<stop stop-color="white"/>
<stop offset="0.425" stop-color="white" stop-opacity="0.553"/>
<stop offset="0.823" stop-color="white" stop-opacity="0.157"/>
<stop offset="1" stop-color="white" stop-opacity="0"/>
</radialGradient>
<radialGradient id="paint10_radial_2_530" cx="0" cy="0" r="1" gradientUnits="userSpaceOnUse" gradientTransform="translate(272.427 603.997) rotate(-151.833) scale(3.53725 13.2801)">
<stop stop-color="white"/>
<stop offset="0.425" stop-color="white" stop-opacity="0.553"/>
<stop offset="0.823" stop-color="white" stop-opacity="0.157"/>
<stop offset="1" stop-color="white" stop-opacity="0"/>
</radialGradient>
<radialGradient id="paint11_radial_2_530" cx="0" cy="0" r="1" gradientUnits="userSpaceOnUse" gradientTransform="translate(423.766 486.836) rotate(-84.1307) scale(5.70253 5.22501)">
<stop stop-color="white"/>
<stop offset="0.425" stop-color="white" stop-opacity="0.553"/>
<stop offset="0.823" stop-color="white" stop-opacity="0.157"/>
<stop offset="1" stop-color="white" stop-opacity="0"/>
</radialGradient>
<radialGradient id="paint12_radial_2_530" cx="0" cy="0" r="1" gradientUnits="userSpaceOnUse" gradientTransform="translate(1133.19 1537.11) rotate(2.66691) scale(46.5462 41.6463)">
<stop stop-color="white"/>
<stop offset="0.048" stop-color="#FCEFF1"/>
<stop offset="0.108" stop-color="#FAE3E6"/>
<stop offset="0.167" stop-color="#FADFE3"/>
<stop offset="0.583" stop-color="#FAB1BD"/>
<stop offset="0.806" stop-color="#FA9EAD"/>
<stop offset="0.845" stop-color="#FAA3B1"/>
<stop offset="1" stop-color="#FAB7C0"/>
</radialGradient>
<radialGradient id="paint13_radial_2_530" cx="0" cy="0" r="1" gradientUnits="userSpaceOnUse" gradientTransform="translate(1197.14 1467.08) rotate(-0.0132756) scale(11.7967 9.41708)">
<stop stop-color="white"/>
<stop offset="0.425" stop-color="white" stop-opacity="0.553"/>
<stop offset="0.823" stop-color="white" stop-opacity="0.157"/>
<stop offset="1" stop-color="white" stop-opacity="0"/>
</radialGradient>
<radialGradient id="paint14_radial_2_530" cx="0" cy="0" r="1" gradientUnits="userSpaceOnUse" gradientTransform="translate(-214.971 808.089) rotate(-171.247) scale(9.71806 3.19856)">
<stop stop-color="white"/>
<stop offset="0.425" stop-color="white" stop-opacity="0.553"/>
<stop offset="0.823" stop-color="white" stop-opacity="0.157"/>
<stop offset="1" stop-color="white" stop-opacity="0"/>
</radialGradient>
<radialGradient id="paint15_radial_2_530" cx="0" cy="0" r="1" gradientUnits="userSpaceOnUse" gradientTransform="translate(1078.36 -985.052) rotate(-89.0476) scale(2.96706 6.63663)">
<stop stop-color="white"/>
<stop offset="0.425" stop-color="white" stop-opacity="0.553"/>
<stop offset="0.823" stop-color="white" stop-opacity="0.157"/>
<stop offset="1" stop-color="white" stop-opacity="0"/>
</radialGradient>
<radialGradient id="paint16_radial_2_530" cx="0" cy="0" r="1" gradientUnits="userSpaceOnUse" gradientTransform="translate(-133.307 18.6524) rotate(28.8523) scale(79.7173 68.1399)">
<stop stop-color="white"/>
<stop offset="0.048" stop-color="#FCEFF1"/>
<stop offset="0.108" stop-color="#FAE3E6"/>
<stop offset="0.167" stop-color="#FADFE3"/>
<stop offset="0.583" stop-color="#FAB1BD"/>
<stop offset="0.806" stop-color="#FA9EAD"/>
<stop offset="0.845" stop-color="#FAA3B1"/>
<stop offset="1" stop-color="#FAB7C0"/>
</radialGradient>
<radialGradient id="paint17_radial_2_530" cx="0" cy="0" r="1" gradientUnits="userSpaceOnUse" gradientTransform="translate(-184.436 171.889) rotate(17.9604) scale(15.1474 20.5209)">
<stop stop-color="white"/>
<stop offset="0.425" stop-color="white" stop-opacity="0.553"/>
<stop offset="0.823" stop-color="white" stop-opacity="0.157"/>
<stop offset="1" stop-color="white" stop-opacity="0"/>
</radialGradient>
<radialGradient id="paint18_radial_2_530" cx="0" cy="0" r="1" gradientUnits="userSpaceOnUse" gradientTransform="translate(856.371 -1343.89) rotate(-151.065) scale(4.69061 18.5929)">
<stop stop-color="white"/>
<stop offset="0.425" stop-color="white" stop-opacity="0.553"/>
<stop offset="0.823" stop-color="white" stop-opacity="0.157"/>
<stop offset="1" stop-color="white" stop-opacity="0"/>
</radialGradient>
<radialGradient id="paint19_radial_2_530" cx="0" cy="0" r="1" gradientUnits="userSpaceOnUse" gradientTransform="translate(312.325 -144.328) rotate(-79.3767) scale(8.67336 6.38955)">
<stop stop-color="white"/>
<stop offset="0.425" stop-color="white" stop-opacity="0.553"/>
<stop offset="0.823" stop-color="white" stop-opacity="0.157"/>
<stop offset="1" stop-color="white" stop-opacity="0"/>
</radialGradient>
<radialGradient id="paint20_radial_2_530" cx="0" cy="0" r="1" gradientUnits="userSpaceOnUse" gradientTransform="translate(721.857 103.173) rotate(33.4174) scale(59.3307 49.3028)">
<stop stop-color="white"/>
<stop offset="0.133" stop-color="#FDF9FA"/>
<stop offset="0.575" stop-color="#FAEDEE"/>
<stop offset="1" stop-color="#FAE9EB"/>
</radialGradient>
<radialGradient id="paint21_radial_2_530" cx="0" cy="0" r="1" gradientUnits="userSpaceOnUse" gradientTransform="translate(707.557 145.724) rotate(21.8085) scale(11.0425 15.1318)">
<stop stop-color="white"/>
<stop offset="0.425" stop-color="white" stop-opacity="0.553"/>
<stop offset="0.823" stop-color="white" stop-opacity="0.157"/>
<stop offset="1" stop-color="white" stop-opacity="0"/>
</radialGradient>
<radialGradient id="paint22_radial_2_530" cx="0" cy="0" r="1" gradientUnits="userSpaceOnUse" gradientTransform="translate(764.85 492.554) rotate(-143.807) scale(3.53776 13.282)">
<stop stop-color="white"/>
<stop offset="0.425" stop-color="white" stop-opacity="0.553"/>
<stop offset="0.823" stop-color="white" stop-opacity="0.157"/>
<stop offset="1" stop-color="white" stop-opacity="0"/>
</radialGradient>
<radialGradient id="paint23_radial_2_530" cx="0" cy="0" r="1" gradientUnits="userSpaceOnUse" gradientTransform="translate(931.088 397.657) rotate(-76.1046) scale(5.70335 5.22577)">
<stop stop-color="white"/>
<stop offset="0.425" stop-color="white" stop-opacity="0.553"/>
<stop offset="0.823" stop-color="white" stop-opacity="0.157"/>
<stop offset="1" stop-color="white" stop-opacity="0"/>
</radialGradient>
<radialGradient id="paint24_radial_2_530" cx="0" cy="0" r="1" gradientUnits="userSpaceOnUse" gradientTransform="translate(286.722 1093.73) rotate(20.6408) scale(46.5395 41.6403)">
<stop stop-color="white"/>
<stop offset="0.048" stop-color="#FCEFF1"/>
<stop offset="0.108" stop-color="#FAE3E6"/>
<stop offset="0.167" stop-color="#FADFE3"/>
<stop offset="0.583" stop-color="#FAB1BD"/>
<stop offset="0.806" stop-color="#FA9EAD"/>
<stop offset="0.845" stop-color="#FAA3B1"/>
<stop offset="1" stop-color="#FAB7C0"/>
</radialGradient>
<radialGradient id="paint25_radial_2_530" cx="0" cy="0" r="1" gradientUnits="userSpaceOnUse" gradientTransform="translate(369.15 1046.86) rotate(17.9607) scale(11.795 9.41572)">
<stop stop-color="white"/>
<stop offset="0.425" stop-color="white" stop-opacity="0.553"/>
<stop offset="0.823" stop-color="white" stop-opacity="0.157"/>
<stop offset="1" stop-color="white" stop-opacity="0"/>
</radialGradient>
<radialGradient id="paint26_radial_2_530" cx="0" cy="0" r="1" gradientUnits="userSpaceOnUse" gradientTransform="translate(-770.528 -15.5709) rotate(-153.273) scale(9.71666 3.1981)">
<stop stop-color="white"/>
<stop offset="0.425" stop-color="white" stop-opacity="0.553"/>
<stop offset="0.823" stop-color="white" stop-opacity="0.157"/>
<stop offset="1" stop-color="white" stop-opacity="0"/>
</radialGradient>
<radialGradient id="paint27_radial_2_530" cx="0" cy="0" r="1" gradientUnits="userSpaceOnUse" gradientTransform="translate(1012.77 -1321.91) rotate(-71.0737) scale(2.96663 6.63567)">
<stop stop-color="white"/>
<stop offset="0.425" stop-color="white" stop-opacity="0.553"/>
<stop offset="0.823" stop-color="white" stop-opacity="0.157"/>
<stop offset="1" stop-color="white" stop-opacity="0"/>
</radialGradient>
<radialGradient id="paint28_radial_2_530" cx="0" cy="0" r="1" gradientUnits="userSpaceOnUse" gradientTransform="translate(27.2507 1498.29) rotate(20.6408) scale(46.5395 41.6403)">
<stop stop-color="white"/>
<stop offset="0.048" stop-color="#FCEFF1"/>
<stop offset="0.108" stop-color="#FAE3E6"/>
<stop offset="0.167" stop-color="#FADFE3"/>
<stop offset="0.583" stop-color="#FAB1BD"/>
<stop offset="0.806" stop-color="#FA9EAD"/>
<stop offset="0.845" stop-color="#FAA3B1"/>
<stop offset="1" stop-color="#FAB7C0"/>
</radialGradient>
<radialGradient id="paint29_radial_2_530" cx="0" cy="0" r="1" gradientUnits="userSpaceOnUse" gradientTransform="translate(109.679 1451.43) rotate(17.9607) scale(11.795 9.41572)">
<stop stop-color="white"/>
<stop offset="0.425" stop-color="white" stop-opacity="0.553"/>
<stop offset="0.823" stop-color="white" stop-opacity="0.157"/>
<stop offset="1" stop-color="white" stop-opacity="0"/>
</radialGradient>
<radialGradient id="paint30_radial_2_530" cx="0" cy="0" r="1" gradientUnits="userSpaceOnUse" gradientTransform="translate(-1030 388.996) rotate(-153.273) scale(9.71666 3.1981)">
<stop stop-color="white"/>
<stop offset="0.425" stop-color="white" stop-opacity="0.553"/>
<stop offset="0.823" stop-color="white" stop-opacity="0.157"/>
<stop offset="1" stop-color="white" stop-opacity="0"/>
</radialGradient>
<radialGradient id="paint31_radial_2_530" cx="0" cy="0" r="1" gradientUnits="userSpaceOnUse" gradientTransform="translate(753.296 -917.342) rotate(-71.0737) scale(2.96663 6.63567)">
<stop stop-color="white"/>
<stop offset="0.425" stop-color="white" stop-opacity="0.553"/>
<stop offset="0.823" stop-color="white" stop-opacity="0.157"/>
<stop offset="1" stop-color="white" stop-opacity="0"/>
</radialGradient>
</defs>
</svg>
