<svg width="23" height="24" viewBox="0 0 23 24" fill="none" xmlns="http://www.w3.org/2000/svg">
<path opacity="0.6" d="M20.161 0.985352H2.50101C2.21151 0.98535 1.92486 1.04249 1.65748 1.15348C1.39011 1.26448 1.14727 1.42716 0.942891 1.63219C0.738511 1.83722 0.576606 2.08057 0.466458 2.3483C0.35631 2.61602 0.300085 2.90285 0.301006 3.19235L0.294006 23.0594L4.70901 18.6444H20.161C20.7458 18.6425 21.3061 18.4094 21.7196 17.9959C22.133 17.5824 22.3662 17.0221 22.368 16.4374V3.19235C22.3662 2.60759 22.133 2.0473 21.7196 1.63381C21.3061 1.22031 20.7458 0.987198 20.161 0.985352ZM17.953 14.2294H4.70901V12.0224H17.953V14.2294ZM17.953 10.9184H4.70901V8.71135H17.953V10.9184ZM17.953 7.60735H4.70901V5.40035H17.953V7.60735Z" fill="black"/>
</svg>
