<svg width="19" height="21" viewBox="0 0 19 21" fill="none" xmlns="http://www.w3.org/2000/svg">
<g opacity="0.6">
<path opacity="0.6" d="M17.259 19.5951V17.6341C17.259 16.5936 16.8457 15.5958 16.11 14.8601C15.3743 14.1244 14.3764 13.7111 13.336 13.7111H5.49099C4.45055 13.7111 3.45272 14.1244 2.71701 14.8601C1.98131 15.5958 1.56799 16.5936 1.56799 17.6341V19.5951" stroke="black" stroke-width="2" stroke-linecap="round" stroke-linejoin="round"/>
<path opacity="0.6" d="M13.336 5.86612C13.336 6.64205 13.1059 7.40057 12.6748 8.04572C12.2437 8.69088 11.6309 9.1937 10.914 9.49059C10.1971 9.78748 9.4083 9.86511 8.64728 9.71366C7.88627 9.56221 7.18726 9.18848 6.63866 8.63974C6.09006 8.091 5.71651 7.39189 5.56525 6.63084C5.41399 5.86979 5.49182 5.08097 5.7889 4.36416C6.08598 3.64734 6.58895 3.03472 7.23422 2.60377C7.87948 2.17283 8.63805 1.94292 9.41399 1.94312C10.4543 1.94338 11.4518 2.35681 12.1873 3.09249C12.9228 3.82817 13.336 4.82584 13.336 5.86612Z" stroke="black" stroke-width="2" stroke-linecap="round" stroke-linejoin="round"/>
</g>
</svg>
