<svg width="37.254" height="37.254" xmlns="http://www.w3.org/2000/svg"><path d="M35.197 0H2.057A2.058 2.058 0 0 0 0 2.057v33.14c0 1.136.922 2.057 2.057 2.057h16.57V22.508h-4.453v-5.433h4.453v-4.017a8.303 8.303 0 0 1 .607-3.234c1.024-2.44 3.255-3.863 5.997-4.145.342-.035.687-.052 1.031-.052l.52.003c1.721.02 3.443.134 4.098.201.055.006.11.012.165.02v5.025H27.62c-2.338 0-2.784 1.106-2.784 2.735v3.464h5.569l-.728 5.433h-4.84v14.746h10.36a2.058 2.058 0 0 0 2.057-2.057V2.057A2.058 2.058 0 0 0 35.197 0z" fill="#fff" fill-rule="evenodd"/></svg>