<svg width="43.487" height="43.478" xmlns="http://www.w3.org/2000/svg"><path d="M43.33 12.772c-.166-3.483-.961-6.568-3.513-9.11a11.016 11.016 0 0 0-4.202-2.643A17.26 17.26 0 0 0 30.708.15C27.246-.046 17.118-.053 13.18.129a39.78 39.78 0 0 0-.412.022c-3.473.164-6.558.96-9.11 3.502a10.937 10.937 0 0 0-2.596 4.06 17.082 17.082 0 0 0-.916 5.05c-.196 3.461-.203 13.59-.02 17.527l.02.41a15.647 15.647 0 0 0 1.291 5.96c.548 1.174 1.3 2.24 2.221 3.15a11.06 11.06 0 0 0 4.064 2.593c1.626.56 3.327.87 5.046.92.472.025.944.045 1.417.06 4.263.135 12.62.122 16.11-.04l.412-.02a15.648 15.648 0 0 0 5.96-1.29c1.173-.549 2.24-1.301 3.15-2.222a11.016 11.016 0 0 0 2.643-4.202 17.26 17.26 0 0 0 .868-4.908c.197-3.462.204-13.58.021-17.518a39.806 39.806 0 0 0-.02-.41zm-4.638 21.78a7.337 7.337 0 0 1-4.133 4.133c-2.834 1.124-9.52.878-12.721.873a61.263 61.263 0 0 0-.838.004c-2.987.023-8.043.135-11.009-.556a7.67 7.67 0 0 1-1.063-.32 7.337 7.337 0 0 1-4.133-4.134 8.536 8.536 0 0 1-.405-1.437c-.654-3.244-.473-8.542-.469-11.284v-.094c0-2.818-.2-8.524.552-11.752a7.67 7.67 0 0 1 .322-1.064 7.337 7.337 0 0 1 4.133-4.133c2.833-1.124 9.519-.878 12.72-.873h.095c2.818 0 8.524-.2 11.752.552a7.67 7.67 0 0 1 1.064.32 7.337 7.337 0 0 1 4.133 4.134c.176.466.312.947.404 1.437.654 3.244.474 8.542.47 11.284a61.264 61.264 0 0 0 .002.8c.027 3.378.18 9.455-.876 12.11zM21.743 10.59a11.13 11.13 0 0 0-11.147 11.148 11.13 11.13 0 0 0 11.147 11.147A11.13 11.13 0 0 0 32.89 21.737a11.13 11.13 0 0 0-11.147-11.148zm-7.247 11.148a7.26 7.26 0 0 0 7.247 7.247c3.988 0 7.247-3.25 7.247-7.247a7.254 7.254 0 0 0-7.247-7.247 7.254 7.254 0 0 0-7.247 7.247zm18.85-9.004a2.594 2.594 0 0 0 2.6-2.6 2.6 2.6 0 1 0-2.6 2.6z" fill="#fff" fill-rule="evenodd"/></svg>