<svg width="40.014" height="40.014" xmlns="http://www.w3.org/2000/svg"><path d="M37.941 23.924c.272-1.287.413-2.597.42-3.913a18.333 18.333 0 0 0-18.34-18.34c-1.332 0-2.654.151-3.914.42A9.92 9.92 0 0 0 10.006 0C4.48.004.004 4.481 0 10.006a9.905 9.905 0 0 0 2.082 6.092 19.443 19.443 0 0 0-.42 3.913c0 10.14 8.21 18.341 18.34 18.341a18.884 18.884 0 0 0 3.913-.42 9.967 9.967 0 0 0 6.093 2.082c5.525-.004 10.002-4.481 10.006-10.006a9.82 9.82 0 0 0-1.439-5.161 10.079 10.079 0 0 0-.634-.923zM15.577 31.43c1.621.451 3.297.677 4.98.67 3.474 0 7.048-1.23 8.836-3.823a6.737 6.737 0 0 0 1.169-3.905c0-.241-.013-.482-.04-.722-.377-3.403-3.44-4.95-6.503-5.819a29.166 29.166 0 0 0-1.56-.392c-.324-.075-.65-.149-.974-.222-3.622-.816-5.199-1.096-5.199-2.726 0-1.082.889-1.7 2.372-1.919a9.528 9.528 0 0 1 1.38-.09c3.583 0 4.09 2.294 5.858 2.865.273.086.557.13.842.127.607 0 1.127-.172 1.545-.462a2.859 2.859 0 0 0 1.162-2.379c0-.194-.021-.388-.063-.578-.593-2.664-5.237-4.371-9.835-4.371-.556 0-1.112.03-1.665.089-4.041.435-8.082 2.51-8.082 7.156-.01.75.09 1.498.298 2.219.972 3.216 4.215 4.138 8.09 5.061.712.167 1.425.337 2.136.51 2.323.572 3.752.831 3.752 2.502 0 .271-.063.54-.186.782-.327.653-1.073 1.164-2.121 1.408a6.489 6.489 0 0 1-1.472.16c-.166 0-.333-.006-.499-.016-3.644-.223-4.47-2.88-6.225-3.734a2.565 2.565 0 0 0-1.146-.262c-1.832 0-2.636 1.304-2.636 2.734 0 2.223 2.371 4.162 5.786 5.137z" fill="#fff" fill-rule="evenodd"/></svg>