<svg width="56.02" height="40.25" xmlns="http://www.w3.org/2000/svg"><g><path d="M53.406 7.332a6.699 6.699 0 0 0-4.675-4.82 13.3 13.3 0 0 0-1.225-.225c-5.029-.723-17.259-.782-19.229-.787a122.38 122.38 0 0 0-.513 0c-1.899.005-14.41.068-19.38.882-.37.058-.738.134-1.1.226a6.699 6.699 0 0 0-4.675 4.82A69.882 69.882 0 0 0 1.5 20.175 69.899 69.899 0 0 0 2.61 33.02a6.7 6.7 0 0 0 4.675 4.627c3.832 1.025 18.296 1.102 20.454 1.108a111.841 111.841 0 0 0 .512 0c1.9-.005 14.412-.068 19.382-.882.37-.058.736-.133 1.099-.226a6.699 6.699 0 0 0 4.675-4.82 69.882 69.882 0 0 0 1.108-12.65 69.88 69.88 0 0 0-1.108-12.844z" stroke-linecap="round" stroke="#fff" stroke-width="3" stroke-linejoin="round" fill="none"/><path d="M22.595 28.06l13.856-7.88-13.856-7.88v15.76z" stroke-linecap="round" stroke="#fff" stroke-width="3" stroke-linejoin="round" fill="none"/></g></svg>